<?xml version="1.0" standalone="no"?>
<!DOCTYPE svg PUBLIC "-//W3C//DTD SVG 20010904//EN"
 "http://www.w3.org/TR/2001/REC-SVG-20010904/DTD/svg10.dtd">
<svg version="1.0" xmlns="http://www.w3.org/2000/svg"
 width="50.000000pt" height="50.000000pt" viewBox="0 0 50.000000 50.000000"
 preserveAspectRatio="xMidYMid meet">

<g transform="translate(0.000000,50.000000) scale(0.100000,-0.100000)"
fill="#000000" stroke="none">
<path d="M16 404 c-13 -12 -16 -40 -16 -134 0 -126 8 -150 50 -150 11 0 30
-11 44 -25 31 -31 41 -31 72 0 19 19 35 25 69 25 69 0 75 12 75 150 0 94 -3
122 -16 134 -23 23 -255 23 -278 0z m74 -120 c0 -15 -23 -44 -34 -44 -3 0 -6
14 -6 30 0 23 4 30 20 30 12 0 20 -7 20 -16z m60 -14 c0 -28 -19 -44 -21 -17
0 10 -2 10 -6 0 -9 -24 -23 -13 -23 17 0 25 4 30 25 30 21 0 25 -5 25 -30z
m110 0 c0 -29 -1 -30 -50 -30 -49 0 -50 1 -50 30 0 29 1 30 50 30 49 0 50 -1
50 -30z m-95 -140 c0 -33 -2 -35 -35 -35 -29 0 -36 4 -38 23 -6 40 5 54 40 50
30 -3 33 -6 33 -38z"/>
<path d="M201 274 c0 -11 3 -14 6 -6 3 7 2 16 -1 19 -3 4 -6 -2 -5 -13z"/>
<path d="M330 245 c0 -120 1 -127 25 -150 30 -31 40 -31 70 -1 13 14 33 27 45
31 43 14 40 119 -6 183 -32 45 -60 62 -104 62 l-30 0 0 -125z m134 43 c24 -34
20 -38 -39 -38 -54 0 -55 0 -55 30 0 28 2 30 39 30 30 0 44 -6 55 -22z m-39
-158 c0 -33 -2 -35 -35 -35 -29 0 -36 4 -38 23 -6 40 5 54 40 50 30 -3 33 -6
33 -38z"/>
</g>
</svg>
