<?xml version="1.0" standalone="no"?>
<!DOCTYPE svg PUBLIC "-//W3C//DTD SVG 20010904//EN"
 "http://www.w3.org/TR/2001/REC-SVG-20010904/DTD/svg10.dtd">
<svg version="1.0" xmlns="http://www.w3.org/2000/svg"
 width="100.000000pt" height="100.000000pt" viewBox="0 0 100.000000 100.000000"
 preserveAspectRatio="xMidYMid meet">

<g transform="translate(0.000000,100.000000) scale(0.100000,-0.100000)"
fill="#000000" stroke="none">
<path d="M296 950 c-42 -13 -90 -49 -117 -88 -20 -30 -24 -48 -24 -112 0 -65
4 -82 25 -112 93 -136 294 -121 361 27 72 158 -79 334 -245 285z"/>
<path d="M635 476 c-60 -28 -87 -56 -114 -116 -73 -161 72 -345 248 -315 125
21 215 159 182 281 -37 139 -188 211 -316 150z m113 -114 l3 -72 69 0 c63 0
70 -2 70 -20 0 -18 -7 -20 -70 -20 l-70 0 0 -70 c0 -63 -2 -70 -20 -70 -18 0
-20 7 -20 70 l0 69 -72 3 c-57 2 -73 6 -73 18 0 12 16 16 73 18 l72 3 0 68 c0
37 3 71 7 75 18 17 28 -7 31 -72z"/>
<path d="M79 431 c-71 -71 -11 -220 110 -274 50 -22 192 -35 257 -23 33 7 36
9 29 34 -25 103 -15 182 31 255 l24 37 -211 0 -211 0 -29 -29z"/>
</g>
</svg>
