<!DOCTYPE svg PUBLIC "-//W3C//DTD SVG 1.1//EN" "http://www.w3.org/Graphics/SVG/1.1/DTD/svg11.dtd">
<!-- Uploaded to: SVG Repo, www.svgrepo.com, Transformed by: SVG Repo Mixer Tools -->
<svg width="64px" height="64px" viewBox="0 0 48.00 48.00" xmlns="http://www.w3.org/2000/svg" fill="#DC441A" transform="rotate(0)matrix(-1, 0, 0, 1, 0, 0)" stroke="#DC441A" stroke-width="0.00048000000000000007">
<g id="SVGRepo_bgCarrier" stroke-width="0"/>
<g id="SVGRepo_tracerCarrier" stroke-linecap="round" stroke-linejoin="round" stroke="#CCCCCC" stroke-width="0.096"/>
<g id="SVGRepo_iconCarrier"> <path d="M0 0h48v48H0z" fill="none"/> <g id="Shopicon"> <path d="M42,6H18c-2.2,0-4,1.8-4,4v4C7.4,14,2,19.4,2,26v12h4c0,3.314,2.686,6,6,6s6-2.686,6-6h8c0,3.314,2.686,6,6,6s6-2.686,6-6 h4c2.2,0,4-1.8,4-4V10C46,7.8,44.2,6,42,6z M34,38c0,1.103-0.897,2-2,2s-2-0.897-2-2s0.897-2,2-2S34,36.897,34,38z M12,40 c-1.103,0-2-0.897-2-2s0.897-2,2-2s2,0.897,2,2S13.103,40,12,40z M32,22v4H22v-4H32z M22,18v-4h14v4H22z M14,17v4 c-1.862,0-3.412,1.278-3.859,3h-4.91C6.145,19.998,9.726,17,14,17z"/> </g> </g>
</svg>