<?xml version="1.0" standalone="no"?>
<!DOCTYPE svg PUBLIC "-//W3C//DTD SVG 20010904//EN"
 "http://www.w3.org/TR/2001/REC-SVG-20010904/DTD/svg10.dtd">
<svg version="1.0" xmlns="http://www.w3.org/2000/svg"
 width="30.000000pt" height="30.000000pt" viewBox="0 0 30.000000 30.000000"
 preserveAspectRatio="xMidYMid meet">

<g transform="translate(0.000000,30.000000) scale(0.100000,-0.100000)"
fill="#000000" stroke="none">
<path d="M81 239 c-30 -27 -34 -39 -43 -106 -5 -42 -7 -82 -4 -90 4 -11 30
-13 118 -11 l113 3 -2 60 c-4 83 -12 125 -25 125 -7 0 -22 10 -35 21 -17 17
-25 19 -36 10 -11 -9 -17 -8 -27 4 -17 20 -20 19 -59 -16z m54 -9 c3 -5 -3
-10 -15 -10 -12 0 -18 5 -15 10 3 6 10 10 15 10 5 0 12 -4 15 -10z m-13 -72
c2 -28 7 -33 28 -33 21 0 26 5 28 33 2 20 9 32 18 32 10 0 14 -6 10 -17 -2
-10 -7 -28 -11 -40 -7 -25 -36 -37 -64 -28 -11 3 -23 16 -26 28 -4 12 -9 30
-11 40 -4 11 0 17 10 17 9 0 16 -12 18 -32z"/>
</g>
</svg>
