<?xml version="1.0" standalone="no"?>
<!DOCTYPE svg PUBLIC "-//W3C//DTD SVG 20010904//EN"
 "http://www.w3.org/TR/2001/REC-SVG-20010904/DTD/svg10.dtd">
<svg version="1.0" xmlns="http://www.w3.org/2000/svg"
 width="100.000000pt" height="100.000000pt" viewBox="0 0 100.000000 100.000000"
 preserveAspectRatio="xMidYMid meet">

<g transform="translate(0.000000,100.000000) scale(0.100000,-0.100000)"
fill="#000000" stroke="none">
<path d="M328 852 c-41 -25 -58 -70 -58 -150 0 -51 4 -75 16 -86 18 -19 20
-19 45 -6 16 9 19 22 19 76 0 109 -11 104 218 104 141 0 201 -3 210 -12 17
-17 17 -539 0 -556 -9 -9 -69 -12 -210 -12 -229 0 -218 -5 -218 104 0 54 -3
67 -19 76 -48 25 -65 -11 -59 -121 4 -67 6 -73 40 -104 45 -42 90 -48 310 -44
178 4 199 10 235 66 16 24 18 58 21 268 5 303 1 338 -43 382 l-33 33 -223 0
c-193 0 -228 -3 -251 -18z"/>
<path d="M498 659 c-27 -15 -21 -52 13 -85 l30 -29 -203 -5 -203 -5 0 -35 0
-35 203 -5 203 -5 -30 -29 c-17 -17 -31 -40 -31 -53 0 -28 33 -48 58 -34 27
14 152 148 152 162 0 15 -152 169 -166 169 -5 0 -17 -5 -26 -11z"/>
</g>
</svg>
